<?xml version="1.0" encoding="UTF-8"?>
<!DOCTYPE svg PUBLIC "-//W3C//DTD SVG 1.1//EN" "http://www.w3.org/Graphics/SVG/1.1/DTD/svg11.dtd">
<svg xmlns="http://www.w3.org/2000/svg" version="1.1" width="500px" height="500px" style="shape-rendering:geometricPrecision; text-rendering:geometricPrecision; image-rendering:optimizeQuality; fill-rule:evenodd; clip-rule:evenodd" xmlns:xlink="http://www.w3.org/1999/xlink">
<g><path style="opacity:1" fill="#3c63ab" d="M 122.5,170.5 C 124.658,172.22 127.325,173.053 130.5,173C 129.552,173.483 128.552,173.649 127.5,173.5C 127.286,175.144 127.62,176.644 128.5,178C 126.167,178.333 123.833,178.667 121.5,179C 120.794,182.131 120.127,185.298 119.5,188.5C 117.955,189.452 116.288,189.785 114.5,189.5C 113.773,219.989 113.107,256.323 112.5,298.5C 112.5,259.167 112.5,219.833 112.5,180.5C 86.2811,184.209 69.4478,198.876 62,224.5C 61.5633,229.706 60.73,234.706 59.5,239.5C 59.2405,234.012 58.2405,228.678 56.5,223.5C 55.5258,225.743 55.1924,228.076 55.5,230.5C 54.5,230.5 53.5,230.5 52.5,230.5C 51.5076,241.895 53.0076,252.895 57,263.5C 57.9246,264.047 58.7579,264.713 59.5,265.5C 58.6258,267.747 58.2924,270.08 58.5,272.5C 52.9681,262.537 50.3014,251.704 50.5,240C 50.6049,213.621 61.6049,193.288 83.5,179C 95.788,171.979 108.788,169.145 122.5,170.5 Z"/></g>
<g><path style="opacity:1" fill="#2f59a2" d="M 122.5,170.5 C 157.6,175.432 178.1,195.432 184,230.5C 184.498,233.817 184.665,237.15 184.5,240.5C 183.437,244.639 182.77,248.972 182.5,253.5C 182.383,258.057 181.383,262.391 179.5,266.5C 178.351,266.209 177.684,265.376 177.5,264C 179.248,261.326 178.748,259.16 176,257.5C 175.667,257.833 175.333,258.167 175,258.5C 174.501,254.179 174.334,249.846 174.5,245.5C 174.5,244.833 174.167,244.5 173.5,244.5C 173.449,242.43 174.115,240.597 175.5,239C 174.077,237.588 174.244,236.421 176,235.5C 176.219,236.938 176.719,238.271 177.5,239.5C 178.326,237.041 178.993,234.541 179.5,232C 178.293,230.7 177.626,229.2 177.5,227.5C 176.178,227.67 175.011,227.337 174,226.5C 173.829,221.467 173.329,216.467 172.5,211.5C 171.808,212.025 171.308,212.692 171,213.5C 170.667,211.833 170.333,210.167 170,208.5C 169.667,208.833 169.333,209.167 169,209.5C 168.578,207.574 167.411,206.574 165.5,206.5C 157.668,195.827 147.668,187.994 135.5,183C 131.278,181.554 126.945,180.72 122.5,180.5C 121.623,189.133 121.289,197.8 121.5,206.5C 120.513,201.695 120.179,196.695 120.5,191.5C 118.5,191.5 116.5,191.5 114.5,191.5C 114.667,227.502 114.5,263.502 114,299.5C 113.329,300.252 112.496,300.586 111.5,300.5C 110.5,300.5 109.5,300.5 108.5,300.5C 108.667,283.83 108.5,267.163 108,250.5C 106.667,248.833 105.333,247.167 104,245.5C 104.742,248.71 105.242,252.043 105.5,255.5C 104.5,255.5 103.5,255.5 102.5,255.5C 102.177,249.346 100.844,243.513 98.5,238C 92.6016,236.659 86.6016,235.826 80.5,235.5C 96.2801,230.771 106.113,236.438 110,252.5C 110.333,267.833 110.667,283.167 111,298.5C 111.69,299.738 112.19,299.738 112.5,298.5C 113.107,256.323 113.773,219.989 114.5,189.5C 116.288,189.785 117.955,189.452 119.5,188.5C 120.127,185.298 120.794,182.131 121.5,179C 123.833,178.667 126.167,178.333 128.5,178C 127.62,176.644 127.286,175.144 127.5,173.5C 128.552,173.649 129.552,173.483 130.5,173C 127.325,173.053 124.658,172.22 122.5,170.5 Z"/></g>
<g><path style="opacity:1" fill="#2055a4" d="M 87.5,203.5 C 100.652,205.144 104.818,212.144 100,224.5C 92.6667,231.167 85.3333,231.167 78,224.5C 73.5853,213.873 76.7519,206.873 87.5,203.5 Z"/></g>
<g><path style="opacity:1" fill="#2052a4" d="M 121.5,206.5 C 121.538,234.376 121.872,261.709 122.5,288.5C 121.517,292.298 121.183,296.298 121.5,300.5C 124.518,300.335 127.518,300.502 130.5,301C 128.19,301.497 125.857,301.663 123.5,301.5C 119.089,301.021 114.922,301.688 111,303.5C 109.205,302.281 109.372,301.281 111.5,300.5C 112.496,300.586 113.329,300.252 114,299.5C 114.5,263.502 114.667,227.502 114.5,191.5C 116.5,191.5 118.5,191.5 120.5,191.5C 120.179,196.695 120.513,201.695 121.5,206.5 Z"/></g>
<g><path style="opacity:1" fill="#1d53a4" d="M 146.5,213.5 C 158.039,212.873 162.539,218.207 160,229.5C 156.364,235.177 151.197,237.01 144.5,235C 139.385,231.509 137.551,226.675 139,220.5C 140.742,217.254 143.242,214.921 146.5,213.5 Z"/></g>
<g><path style="opacity:1" fill="#325ba2" d="M 286.5,217.5 C 292.202,218.534 293.868,221.701 291.5,227C 286.171,229.762 282.504,228.429 280.5,223C 281.108,219.555 283.108,217.722 286.5,217.5 Z"/></g>
<g><path style="opacity:1" fill="#2c589b" d="M 307.5,223.5 C 305.146,223.838 302.813,224.338 300.5,225C 301.09,226.509 301.756,228.009 302.5,229.5C 303.251,228.624 303.751,227.624 304,226.5C 305.558,228.769 305.724,231.102 304.5,233.5C 301.632,229.75 299.966,230.416 299.5,235.5C 300.978,235.238 302.311,235.571 303.5,236.5C 302.675,237.386 301.675,237.719 300.5,237.5C 300.334,244.508 300.5,251.508 301,258.5C 303.565,260.179 306.398,260.846 309.5,260.5C 309.33,259.178 309.663,258.011 310.5,257C 309.552,256.517 308.552,256.351 307.5,256.5C 307.5,255.5 307.5,254.5 307.5,253.5C 308.721,254.028 309.887,254.695 311,255.5C 312.356,254.62 313.856,254.286 315.5,254.5C 315.5,257.167 315.5,259.833 315.5,262.5C 309.904,264.417 304.738,263.75 300,260.5C 298.568,252.946 298.068,245.279 298.5,237.5C 296.833,237.5 295.167,237.5 293.5,237.5C 293.5,235.167 293.5,232.833 293.5,230.5C 295.167,230.5 296.833,230.5 298.5,230.5C 298.5,227.833 298.5,225.167 298.5,222.5C 301.119,222.768 303.619,222.435 306,221.5C 306.717,222.044 307.217,222.711 307.5,223.5 Z"/></g>
<g><path style="opacity:0.126" fill="#a9c6ed" d="M 276.5,262.5 C 276.5,248.167 276.5,233.833 276.5,219.5C 273.833,219.5 271.167,219.5 268.5,219.5C 268.5,233.833 268.5,248.167 268.5,262.5C 267.504,248.01 267.171,233.343 267.5,218.5C 270.833,218.5 274.167,218.5 277.5,218.5C 277.829,233.343 277.496,248.01 276.5,262.5 Z"/></g>
<g><path style="opacity:1" fill="#1e509d" d="M 282.5,230.5 C 285.5,230.5 288.5,230.5 291.5,230.5C 291.5,241.167 291.5,251.833 291.5,262.5C 288.5,262.5 285.5,262.5 282.5,262.5C 282.5,251.833 282.5,241.167 282.5,230.5 Z"/></g>
<g><path style="opacity:0.475" fill="#89b1d8" d="M 314.5,230.5 C 315.468,232.607 315.802,234.941 315.5,237.5C 312.938,238.371 310.272,238.371 307.5,237.5C 309.607,236.532 311.941,236.198 314.5,236.5C 314.5,234.5 314.5,232.5 314.5,230.5 Z"/></g>
<g><path style="opacity:0.497" fill="#7594b8" d="M 353.5,219.5 C 356.962,218.518 360.629,218.185 364.5,218.5C 364.829,233.343 364.496,248.01 363.5,262.5C 363.5,248.167 363.5,233.833 363.5,219.5C 360.167,219.5 356.833,219.5 353.5,219.5 Z"/></g>
<g><path style="opacity:1" fill="#1252a5" d="M 59.5,239.5 C 59.9026,249.56 62.4026,258.893 67,267.5C 67.2113,260.449 67.878,253.449 69,246.5C 71.4062,241.259 75.2395,237.592 80.5,235.5C 86.6016,235.826 92.6016,236.659 98.5,238C 100.844,243.513 102.177,249.346 102.5,255.5C 103.5,255.5 104.5,255.5 105.5,255.5C 105.242,252.043 104.742,248.71 104,245.5C 105.333,247.167 106.667,248.833 108,250.5C 108.5,267.163 108.667,283.83 108.5,300.5C 109.5,300.5 110.5,300.5 111.5,300.5C 109.372,301.281 109.205,302.281 111,303.5C 114.922,301.688 119.089,301.021 123.5,301.5C 123.5,302.5 123.5,303.5 123.5,304.5C 125.29,303.987 126.956,303.487 128.5,303C 127.167,303.667 127.167,304.333 128.5,305C 127.271,305.781 125.938,306.281 124.5,306.5C 120.266,306.182 115.933,306.182 111.5,306.5C 111.5,307.5 111.5,308.5 111.5,309.5C 87.0578,306.786 69.3911,294.453 58.5,272.5C 58.2924,270.08 58.6258,267.747 59.5,265.5C 58.7579,264.713 57.9246,264.047 57,263.5C 53.0076,252.895 51.5076,241.895 52.5,230.5C 53.5,230.5 54.5,230.5 55.5,230.5C 55.1924,228.076 55.5258,225.743 56.5,223.5C 58.2405,228.678 59.2405,234.012 59.5,239.5 Z"/></g>
<g><path style="opacity:1" fill="#1d529f" d="M 353.5,219.5 C 356.833,219.5 360.167,219.5 363.5,219.5C 363.5,233.833 363.5,248.167 363.5,262.5C 360.833,262.5 358.167,262.5 355.5,262.5C 355.666,253.827 355.5,245.16 355,236.5C 351.367,244.439 347.7,252.439 344,260.5C 342.333,261.833 340.667,261.833 339,260.5C 335.574,252.65 331.907,244.983 328,237.5C 327.5,245.827 327.334,254.16 327.5,262.5C 324.428,262.817 321.428,262.484 318.5,261.5C 318.167,260.833 317.833,260.167 317.5,259.5C 318.482,245.883 318.815,232.216 318.5,218.5C 322.555,218.176 326.555,218.509 330.5,219.5C 333.847,228.033 337.68,236.367 342,244.5C 345.573,235.903 349.406,227.57 353.5,219.5 Z"/></g>
<g><path style="opacity:1" fill="#2856a0" d="M 432.5,229.5 C 446.48,228.818 452.48,235.485 450.5,249.5C 443.492,249.334 436.492,249.5 429.5,250C 433.42,256.276 437.92,256.776 443,251.5C 445.386,251.549 447.886,252.215 450.5,253.5C 446.9,261.967 440.567,265.133 431.5,263C 421.832,258.628 418.332,251.128 421,240.5C 422.789,234.541 426.622,230.875 432.5,229.5 Z M 434.5,236.5 C 438.293,236.44 440.459,238.107 441,241.5C 437.606,242.456 434.106,242.789 430.5,242.5C 430.657,239.682 431.991,237.682 434.5,236.5 Z"/></g>
<g><path style="opacity:1" fill="#0e4b99" d="M 276.5,262.5 C 273.833,262.5 271.167,262.5 268.5,262.5C 268.5,248.167 268.5,233.833 268.5,219.5C 271.167,219.5 273.833,219.5 276.5,219.5C 276.5,233.833 276.5,248.167 276.5,262.5 Z"/></g>
<g><path style="opacity:1" fill="#0d50a2" d="M 307.5,223.5 C 307.5,225.833 307.5,228.167 307.5,230.5C 309.833,230.5 312.167,230.5 314.5,230.5C 314.5,232.5 314.5,234.5 314.5,236.5C 311.941,236.198 309.607,236.532 307.5,237.5C 307.5,242.833 307.5,248.167 307.5,253.5C 307.5,254.5 307.5,255.5 307.5,256.5C 308.552,256.351 309.552,256.517 310.5,257C 309.663,258.011 309.33,259.178 309.5,260.5C 306.398,260.846 303.565,260.179 301,258.5C 300.5,251.508 300.334,244.508 300.5,237.5C 301.675,237.719 302.675,237.386 303.5,236.5C 302.311,235.571 300.978,235.238 299.5,235.5C 299.966,230.416 301.632,229.75 304.5,233.5C 305.724,231.102 305.558,228.769 304,226.5C 303.751,227.624 303.251,228.624 302.5,229.5C 301.756,228.009 301.09,226.509 300.5,225C 302.813,224.338 305.146,223.838 307.5,223.5 Z"/></g>
<g><path style="opacity:1" fill="#2555a0" d="M 403.5,222.5 C 406.5,222.5 409.5,222.5 412.5,222.5C 412.336,225.187 412.503,227.854 413,230.5C 415.288,230.263 417.788,230.263 420.5,230.5C 420.08,232.674 420.08,234.674 420.5,236.5C 418.319,238.348 415.985,238.682 413.5,237.5C 412.214,242.856 412.214,248.189 413.5,253.5C 414.242,254.287 415.075,254.953 416,255.5C 417.356,254.62 418.856,254.286 420.5,254.5C 421.477,263.008 417.81,265.842 409.5,263C 407.061,262.226 405.227,260.726 404,258.5C 403.5,251.508 403.334,244.508 403.5,237.5C 401.833,237.5 400.167,237.5 398.5,237.5C 398.5,235.167 398.5,232.833 398.5,230.5C 400.167,230.5 401.833,230.5 403.5,230.5C 403.5,227.833 403.5,225.167 403.5,222.5 Z"/></g>
<g><path style="opacity:1" fill="#2e59a4" d="M 165.5,206.5 C 167.411,206.574 168.578,207.574 169,209.5C 169.333,209.167 169.667,208.833 170,208.5C 170.333,210.167 170.667,211.833 171,213.5C 171.308,212.692 171.808,212.025 172.5,211.5C 173.329,216.467 173.829,221.467 174,226.5C 175.011,227.337 176.178,227.67 177.5,227.5C 177.626,229.2 178.293,230.7 179.5,232C 178.993,234.541 178.326,237.041 177.5,239.5C 176.719,238.271 176.219,236.938 176,235.5C 174.244,236.421 174.077,237.588 175.5,239C 174.115,240.597 173.449,242.43 173.5,244.5C 174.167,244.5 174.5,244.833 174.5,245.5C 174.334,249.846 174.501,254.179 175,258.5C 175.333,258.167 175.667,257.833 176,257.5C 178.748,259.16 179.248,261.326 177.5,264C 177.684,265.376 178.351,266.209 179.5,266.5C 175.389,277.051 169.056,286.051 160.5,293.5C 159.563,289.27 161.229,286.77 165.5,286C 164.994,283.468 163.827,281.302 162,279.5C 161.184,280.823 160.017,281.489 158.5,281.5C 167.723,271.669 172.556,260.002 173,246.5C 170.008,251.317 166.508,255.65 162.5,259.5C 160.833,260.833 159.167,260.833 157.5,259.5C 154.517,257.68 151.684,255.68 149,253.5C 143.179,258.654 137.679,264.154 132.5,270C 128.642,272.54 125.976,271.707 124.5,267.5C 130.571,258.924 137.571,251.09 145.5,244C 147.5,243.333 149.5,243.333 151.5,244C 153.907,246.285 156.407,248.451 159,250.5C 164.34,243.809 169.174,236.809 173.5,229.5C 172.02,221.391 169.353,213.725 165.5,206.5 Z"/></g>
<g><path style="opacity:0.125" fill="#9cb7da" d="M 184.5,240.5 C 184.844,245.122 184.177,249.455 182.5,253.5C 182.77,248.972 183.437,244.639 184.5,240.5 Z"/></g>
<g><path style="opacity:1" fill="#2d59a3" d="M 243.5,261.5 C 243.44,260.957 243.107,260.624 242.5,260.5C 241.508,264.783 241.174,269.116 241.5,273.5C 238.713,274.477 235.713,274.81 232.5,274.5C 232.5,259.833 232.5,245.167 232.5,230.5C 236.03,229.989 239.196,230.656 242,232.5C 247.645,228.674 253.479,228.507 259.5,232C 261.617,233.731 263.117,235.898 264,238.5C 264.667,243.5 264.667,248.5 264,253.5C 259.771,262.964 252.938,265.63 243.5,261.5 Z M 245.5,237.5 C 251.706,236.868 255.039,239.701 255.5,246C 255.452,250.956 253.118,254.123 248.5,255.5C 244.045,254.297 241.711,251.297 241.5,246.5C 242.07,243.108 243.404,240.108 245.5,237.5 Z"/></g>
<g><path style="opacity:1" fill="#2455a2" d="M 379.5,229.5 C 385.941,228.476 391.108,230.476 395,235.5C 396.381,244.432 396.881,253.432 396.5,262.5C 393.989,262.699 391.822,263.032 390,263.5C 388.915,262.707 387.748,262.04 386.5,261.5C 372.622,266.42 366.956,261.753 369.5,247.5C 370.685,246.147 372.019,244.98 373.5,244C 378.252,243.145 382.919,241.979 387.5,240.5C 383.93,235.392 380.93,235.725 378.5,241.5C 374.952,241.905 371.619,241.405 368.5,240C 370.47,234.525 374.137,231.025 379.5,229.5 Z M 385.5,248.5 C 387.344,249.204 387.844,250.537 387,252.5C 382.501,256.992 379.834,256.325 379,250.5C 381.277,249.883 383.444,249.216 385.5,248.5 Z"/></g>
<g><path style="opacity:1" fill="#2c59a3" d="M 213.5,217.5 C 221.436,218.111 226.77,222.111 229.5,229.5C 226.216,230.657 222.882,230.824 219.5,230C 215.153,223.902 211.486,224.236 208.5,231C 208.585,232.107 208.919,233.107 209.5,234C 215.988,235.157 221.822,237.657 227,241.5C 232.283,257.909 226.116,265.075 208.5,263C 201.612,261.035 198.279,256.535 198.5,249.5C 201.518,249.335 204.518,249.502 207.5,250C 211.173,256.134 215.34,256.634 220,251.5C 220.711,249.633 220.211,248.133 218.5,247C 213.898,245.133 209.232,243.466 204.5,242C 197.434,236.116 196.768,229.616 202.5,222.5C 205.895,219.964 209.562,218.298 213.5,217.5 Z"/></g>
<g><path style="opacity:0.004" fill="#edfcfe" d="M 243.5,261.5 C 242.833,265.5 242.167,269.5 241.5,273.5C 241.174,269.116 241.508,264.783 242.5,260.5C 243.107,260.624 243.44,260.957 243.5,261.5 Z"/></g>
<g><path style="opacity:0.988" fill="#2053a2" d="M 158.5,281.5 C 160.017,281.489 161.184,280.823 162,279.5C 163.827,281.302 164.994,283.468 165.5,286C 161.229,286.77 159.563,289.27 160.5,293.5C 146.458,305.33 130.124,310.663 111.5,309.5C 111.5,308.5 111.5,307.5 111.5,306.5C 115.933,306.182 120.266,306.182 124.5,306.5C 125.938,306.281 127.271,305.781 128.5,305C 127.167,304.333 127.167,303.667 128.5,303C 126.956,303.487 125.29,303.987 123.5,304.5C 123.5,303.5 123.5,302.5 123.5,301.5C 125.857,301.663 128.19,301.497 130.5,301C 127.518,300.502 124.518,300.335 121.5,300.5C 121.183,296.298 121.517,292.298 122.5,288.5C 122.5,292.167 122.5,295.833 122.5,299.5C 130.32,298.711 137.654,296.378 144.5,292.5C 145.429,291.311 145.762,289.978 145.5,288.5C 141.47,287.494 139.803,284.827 140.5,280.5C 143.361,280.342 146.028,281.008 148.5,282.5C 149.167,282.167 149.833,281.833 150.5,281.5C 147.441,279.414 144.275,277.414 141,275.5C 140.333,272.5 140.333,269.5 141,266.5C 143.625,263.885 146.625,261.885 150,260.5C 151.309,262.976 153.142,264.976 155.5,266.5C 156.309,268.071 156.643,269.738 156.5,271.5C 153.518,271.896 150.851,271.229 148.5,269.5C 147.692,269.808 147.025,270.308 146.5,271C 149.121,272.595 151.787,274.095 154.5,275.5C 156.015,277.547 156.849,279.881 157,282.5C 157.383,281.944 157.883,281.611 158.5,281.5 Z"/></g>
</svg>
