<?xml version="1.0" encoding="UTF-8"?>
<!DOCTYPE svg PUBLIC "-//W3C//DTD SVG 1.1//EN" "http://www.w3.org/Graphics/SVG/1.1/DTD/svg11.dtd">
<svg xmlns="http://www.w3.org/2000/svg" version="1.1" width="485px" height="484px" style="shape-rendering:geometricPrecision; text-rendering:geometricPrecision; image-rendering:optimizeQuality; fill-rule:evenodd; clip-rule:evenodd" xmlns:xlink="http://www.w3.org/1999/xlink">
<g><path style="opacity:1" fill="#0d368c" d="M 55.5,287.5 C 55.4914,285.692 55.9914,284.025 57,282.5C 68.0481,335.877 94.8814,379.044 137.5,412C 150.755,421.262 164.921,428.762 180,434.5C 180.333,434.167 180.667,433.833 181,433.5C 181.483,434.448 181.649,435.448 181.5,436.5C 231.408,454.835 280.741,453.669 329.5,433C 344.893,425.439 359.559,416.772 373.5,407C 375.978,402.52 379.645,399.52 384.5,398C 390.672,390.33 397.339,383.163 404.5,376.5C 406.396,372.271 409.063,368.604 412.5,365.5C 414.529,366.629 414.863,366.129 413.5,364C 422.906,349.007 431.073,332.84 438,315.5C 444.134,297.04 447.8,278.04 449,258.5C 449.153,243.297 449.319,228.131 449.5,213C 449.056,211.238 448.556,211.405 448,213.5C 446.468,202.162 443.802,191.162 440,180.5C 439.34,177.953 439.507,175.453 440.5,173C 440.056,171.238 439.556,171.405 439,173.5C 436.875,167.111 434.375,160.944 431.5,155C 432.566,153.841 432.233,153.008 430.5,152.5C 400.577,89.7336 351.577,51.567 283.5,38C 199.289,28.378 133.789,58.2113 87,127.5C 82.1895,136.929 77.1895,146.262 72,155.5C 67.4527,166.604 63.4527,177.937 60,189.5C 57.7641,200.386 56.2641,211.386 55.5,222.5C 54.2514,240.363 54.5848,258.363 56.5,276.5C 56.4439,278.64 55.7773,280.306 54.5,281.5C 41.5957,201.854 64.5957,134.687 123.5,80C 178.104,35.7168 239.771,22.3835 308.5,40C 374.137,62.4962 418.637,106.33 442,171.5C 453.7,211.405 455.7,252.072 448,293.5C 431.276,358.375 393.442,405.542 334.5,435C 248.504,469.534 172.671,454.368 107,389.5C 79.9419,360.383 62.7752,326.383 55.5,287.5 Z"/></g>
<g><path style="opacity:1" fill="#0a52a6" d="M 430.5,152.5 C 431.556,156.529 431.556,160.529 430.5,164.5C 431,165.5 431.5,166.5 432,167.5C 432.333,167.167 432.667,166.833 433,166.5C 433.687,168.568 433.52,170.568 432.5,172.5C 435.081,174.674 435.081,176.84 432.5,179C 433.022,179.561 433.355,180.228 433.5,181C 432.201,182.326 430.868,183.66 429.5,185C 430.114,186.13 430.114,187.463 429.5,189C 428.317,191.604 426.984,194.104 425.5,196.5C 424.065,195.053 423.065,193.386 422.5,191.5C 420.422,183.703 417.922,176.037 415,168.5C 410.279,160.088 405.945,151.421 402,142.5C 390.748,127.413 378.248,113.413 364.5,100.5C 363.614,99.675 363.281,98.675 363.5,97.5C 362.07,97.5792 360.736,97.2458 359.5,96.5C 339.718,79.9866 317.385,68.6533 292.5,62.5C 292.33,61.1779 292.663,60.0113 293.5,59C 292.892,58.1301 292.059,57.6301 291,57.5C 287.834,59.4674 284.667,59.6341 281.5,58C 277.848,57.5014 274.182,57.3347 270.5,57.5C 270.66,55.8008 270.494,54.1341 270,52.5C 269.801,54.4025 268.967,55.9025 267.5,57C 267.833,57.3333 268.167,57.6667 268.5,58C 266.613,57.5771 264.613,57.7437 262.5,58.5C 261.637,55.5325 261.97,52.5325 263.5,49.5C 262.47,49.4455 261.303,49.1122 260,48.5C 259.603,55.0715 258.769,61.7381 257.5,68.5C 257.868,77.4053 258.368,86.4053 259,95.5C 259.333,84.8333 259.667,74.1667 260,63.5C 260.667,111.5 260.667,159.5 260,207.5C 258.886,209.97 258.386,212.636 258.5,215.5C 260.555,234.336 261.055,253.336 260,272.5C 259.667,272.167 259.333,271.833 259,271.5C 258.333,277.167 258.333,282.833 259,288.5C 259.333,287.833 259.667,287.167 260,286.5C 260.667,302.833 260.667,319.167 260,335.5C 258.701,335.034 257.201,335.034 255.5,335.5C 255.548,332.687 256.215,330.021 257.5,327.5C 256.76,319.125 256.76,310.791 257.5,302.5C 256.811,300.556 256.311,298.556 256,296.5C 254.844,295.007 254.01,295.174 253.5,297C 254.482,297.381 255.148,298.214 255.5,299.5C 253.669,302.988 253.169,306.655 254,310.5C 254.556,308.405 255.056,308.238 255.5,310C 255.095,310.945 254.428,311.612 253.5,312C 254.833,313.333 254.833,314.667 253.5,316C 254.357,316.689 255.023,317.522 255.5,318.5C 255.148,324.668 254.148,330.668 252.5,336.5C 253.967,336.723 255.467,337.056 257,337.5C 257.27,341.373 257.77,345.206 258.5,349C 258.368,359.861 258.035,370.195 257.5,380C 259.437,388.043 259.437,396.21 257.5,404.5C 259.077,409.046 258.744,413.379 256.5,417.5C 255.103,413.085 253.603,408.752 252,404.5C 251.667,405.167 251.333,405.833 251,406.5C 250.167,405.5 249.333,404.5 248.5,403.5C 247.209,407.045 247.209,410.545 248.5,414C 247.953,414.925 247.287,415.758 246.5,416.5C 245.083,413.908 244.083,411.241 243.5,408.5C 243.518,371.852 243.518,335.352 243.5,299C 244.25,293.202 245.083,287.369 246,281.5C 246.5,281 247,280.5 247.5,280C 245.229,276.925 244.063,273.425 244,269.5C 243.5,262.842 243.334,256.175 243.5,249.5C 242.665,209.173 242.332,168.839 242.5,128.5C 242.803,105.467 242.469,82.4672 241.5,59.5C 222.497,60.2754 204.163,63.9421 186.5,70.5C 176.445,75.346 166.445,80.5127 156.5,86C 152.745,87.5879 149.745,90.0879 147.5,93.5C 145.382,94.9459 143.049,95.6126 140.5,95.5C 140.509,97.3084 140.009,98.9751 139,100.5C 130.85,106.985 123.683,114.485 117.5,123C 118.448,123.483 119.448,123.649 120.5,123.5C 120.262,125.404 119.262,126.738 117.5,127.5C 114.988,127.423 112.988,128.423 111.5,130.5C 107.557,137.108 103.224,143.441 98.5,149.5C 97.3128,153.568 95.6461,157.402 93.5,161C 94.0556,162.011 94.7222,162.844 95.5,163.5C 94.1779,163.33 93.0113,163.663 92,164.5C 87.8525,173.462 84.8525,182.796 83,192.5C 82,194.167 81,195.833 80,197.5C 77.8421,210.096 76.3421,222.763 75.5,235.5C 72.203,236.855 71.8696,236.355 74.5,234C 73.0692,233.535 71.9025,232.701 71,231.5C 71.1998,238.597 69.8665,238.93 67,232.5C 66.8214,229.447 66.3214,226.447 65.5,223.5C 65.4897,228.711 65.323,234.044 65,239.5C 64.0853,238.672 63.4186,237.672 63,236.5C 61.9887,237.337 60.8221,237.67 59.5,237.5C 59.8174,234.428 59.4841,231.428 58.5,228.5C 57.8076,229.025 57.3076,229.692 57,230.5C 55.6253,228.063 55.1253,225.397 55.5,222.5C 56.2641,211.386 57.7641,200.386 60,189.5C 63.4527,177.937 67.4527,166.604 72,155.5C 77.1895,146.262 82.1895,136.929 87,127.5C 133.789,58.2113 199.289,28.378 283.5,38C 351.577,51.567 400.577,89.7336 430.5,152.5 Z"/></g>
<g><path style="opacity:0.635" fill="#0b378d" d="M 275.5,59.5 C 281.245,60.1159 286.911,61.1159 292.5,62.5C 317.385,68.6533 339.718,79.9866 359.5,96.5C 360.736,97.2458 362.07,97.5792 363.5,97.5C 363.281,98.675 363.614,99.675 364.5,100.5C 378.248,113.413 390.748,127.413 402,142.5C 405.945,151.421 410.279,160.088 415,168.5C 417.922,176.037 420.422,183.703 422.5,191.5C 423.547,196.353 423.547,201.186 422.5,206C 422.944,207.762 423.444,207.595 424,205.5C 425.064,206.944 425.564,208.611 425.5,210.5C 425.194,213.532 424.694,216.532 424,219.5C 410.329,238.848 396.662,258.181 383,277.5C 378.745,281.414 375.411,280.748 373,275.5C 369.841,274.426 367.507,272.426 366,269.5C 365.667,269.833 365.333,270.167 365,270.5C 363.494,268.826 361.661,267.826 359.5,267.5C 359.67,266.178 359.337,265.011 358.5,264C 355.424,262.145 352.091,261.312 348.5,261.5C 348.5,260.5 348.5,259.5 348.5,258.5C 346.143,258.337 343.81,258.503 341.5,259C 339.974,260.887 337.974,261.887 335.5,262C 320.893,277.363 306.393,292.863 292,308.5C 291.51,307.207 291.343,305.873 291.5,304.5C 305.159,290.173 318.492,275.506 331.5,260.5C 336.857,255.312 343.191,253.479 350.5,255C 359.642,261.747 368.642,268.747 377.5,276C 378.635,276.749 379.635,276.583 380.5,275.5C 394.421,255.002 408.421,235.002 422.5,215.5C 418.641,181.26 405.641,150.927 383.5,124.5C 376.403,116.901 369.069,109.401 361.5,102C 360.552,101.517 359.552,101.351 358.5,101.5C 358.719,100.325 358.386,99.325 357.5,98.5C 331.184,77.7324 301.184,65.7324 267.5,62.5C 267.611,61.8826 267.944,61.3826 268.5,61C 271.036,60.8138 273.369,60.3138 275.5,59.5 Z"/></g>
<g><path style="opacity:0.51" fill="#0b3589" d="M 242.5,128.5 C 241.833,110.5 241.167,92.5 240.5,74.5C 240.371,70.2167 240.038,66.2167 239.5,62.5C 195.624,65.5279 158.791,82.8612 129,114.5C 126.588,118.074 123.755,121.074 120.5,123.5C 119.448,123.649 118.448,123.483 117.5,123C 123.683,114.485 130.85,106.985 139,100.5C 140.009,98.9751 140.509,97.3084 140.5,95.5C 143.049,95.6126 145.382,94.9459 147.5,93.5C 149.745,90.0879 152.745,87.5879 156.5,86C 166.445,80.5127 176.445,75.346 186.5,70.5C 204.163,63.9421 222.497,60.2754 241.5,59.5C 242.469,82.4672 242.803,105.467 242.5,128.5 Z"/></g>
<g><path style="opacity:1" fill="#0a52a5" d="M 194.5,199.5 C 192.388,202.941 189.388,205.275 185.5,206.5C 186.763,204.57 188.43,202.903 190.5,201.5C 190.333,201.167 190.167,200.833 190,200.5C 169.754,213.059 152.087,210.726 137,193.5C 127.249,174.685 130.082,158.185 145.5,144C 164.402,134.546 180.902,137.046 195,151.5C 204.558,168.073 203.392,183.739 191.5,198.5C 192.325,199.386 193.325,199.719 194.5,199.5 Z"/></g>
<g><path style="opacity:0.592" fill="#0d378b" d="M 194.5,199.5 C 193.325,199.719 192.325,199.386 191.5,198.5C 203.392,183.739 204.558,168.073 195,151.5C 180.902,137.046 164.402,134.546 145.5,144C 130.082,158.185 127.249,174.685 137,193.5C 152.087,210.726 169.754,213.059 190,200.5C 190.167,200.833 190.333,201.167 190.5,201.5C 188.43,202.903 186.763,204.57 185.5,206.5C 169.143,215.177 153.81,213.51 139.5,201.5C 129.317,190.444 125.817,177.444 129,162.5C 138.797,138.763 156.297,130.263 181.5,137C 196.587,144.313 204.254,156.479 204.5,173.5C 204.3,183.443 200.966,192.109 194.5,199.5 Z"/></g>
<g><path style="opacity:0.929" fill="#0a3489" d="M 117.5,127.5 C 110.127,139.006 102.793,151.006 95.5,163.5C 94.7222,162.844 94.0556,162.011 93.5,161C 95.6461,157.402 97.3128,153.568 98.5,149.5C 103.224,143.441 107.557,137.108 111.5,130.5C 112.988,128.423 114.988,127.423 117.5,127.5 Z"/></g>
<g><path style="opacity:0.597" fill="#042071" d="M 264.5,62.5 C 264.5,148.5 264.5,234.5 264.5,320.5C 263.673,315.015 263.173,309.348 263,303.5C 262.333,223.5 262.333,143.5 263,63.5C 263.383,62.944 263.883,62.6107 264.5,62.5 Z"/></g>
<g><path style="opacity:1" fill="#0a52a6" d="M 292.5,62.5 C 286.911,61.1159 281.245,60.1159 275.5,59.5C 271.098,59.2281 266.765,59.5614 262.5,60.5C 261.5,180.498 261.167,300.498 261.5,420.5C 261.141,422.766 261.808,424.599 263.5,426C 267.486,426.499 271.486,426.666 275.5,426.5C 298.863,422.767 320.696,414.767 341,402.5C 341.83,396.804 341.663,391.137 340.5,385.5C 330.478,385.822 325.478,380.488 325.5,369.5C 328.247,369.187 330.914,369.52 333.5,370.5C 339.51,377.792 346.676,379.125 355,374.5C 357.922,368.017 356.422,362.85 350.5,359C 344.069,356.8 337.736,354.3 331.5,351.5C 327.666,347.132 324.666,342.298 322.5,337C 324.612,327.997 330.612,321.83 340.5,318.5C 341.407,315.579 341.74,312.579 341.5,309.5C 344.127,310.092 346.794,310.425 349.5,310.5C 349.192,312.924 349.526,315.257 350.5,317.5C 355.025,319.595 359.025,322.429 362.5,326C 363.448,326.483 364.448,326.649 365.5,326.5C 366.092,329.127 366.425,331.794 366.5,334.5C 363.15,334.665 359.817,334.498 356.5,334C 351.373,326.646 345.04,325.646 337.5,331C 334.247,335.304 334.914,338.637 339.5,341C 338.167,341.667 338.167,342.333 339.5,343C 346.3,346.491 353.3,349.491 360.5,352C 369.882,362.506 369.549,372.839 359.5,383C 353.524,384.139 350.191,387.639 349.5,393.5C 352.948,393.203 355.948,391.87 358.5,389.5C 383.854,369.704 402.854,344.37 415.5,313.5C 416.75,309.248 417.584,304.914 418,300.5C 418.333,301.5 418.667,302.5 419,303.5C 424.291,286.476 427.291,269.143 428,251.5C 427.333,250.167 426.667,250.167 426,251.5C 425.082,249.368 423.749,248.701 422,249.5C 412.258,264.217 402.425,278.884 392.5,293.5C 388.637,296.124 384.637,298.458 380.5,300.5C 371.734,296.458 364.067,290.958 357.5,284C 357.833,283.667 358.167,283.333 358.5,283C 353.822,281.617 349.655,279.45 346,276.5C 344.774,276.645 343.607,276.978 342.5,277.5C 326.294,295.535 309.961,313.368 293.5,331C 291.188,332.349 288.688,333.182 286,333.5C 283.648,333.695 281.648,333.028 280,331.5C 279.333,328.5 279.333,325.5 280,322.5C 282.819,318.351 285.986,314.517 289.5,311C 288.207,310.51 286.873,310.343 285.5,310.5C 286.836,308.693 288.503,307.193 290.5,306C 289.288,304.893 289.621,304.393 291.5,304.5C 291.343,305.873 291.51,307.207 292,308.5C 306.393,292.863 320.893,277.363 335.5,262C 337.974,261.887 339.974,260.887 341.5,259C 343.81,258.503 346.143,258.337 348.5,258.5C 348.5,259.5 348.5,260.5 348.5,261.5C 352.091,261.312 355.424,262.145 358.5,264C 359.337,265.011 359.67,266.178 359.5,267.5C 361.661,267.826 363.494,268.826 365,270.5C 365.333,270.167 365.667,269.833 366,269.5C 367.507,272.426 369.841,274.426 373,275.5C 375.411,280.748 378.745,281.414 383,277.5C 396.662,258.181 410.329,238.848 424,219.5C 424.694,216.532 425.194,213.532 425.5,210.5C 425.564,208.611 425.064,206.944 424,205.5C 423.444,207.595 422.944,207.762 422.5,206C 423.547,201.186 423.547,196.353 422.5,191.5C 423.065,193.386 424.065,195.053 425.5,196.5C 426.984,194.104 428.317,191.604 429.5,189C 430.114,187.463 430.114,186.13 429.5,185C 430.868,183.66 432.201,182.326 433.5,181C 433.355,180.228 433.022,179.561 432.5,179C 435.081,176.84 435.081,174.674 432.5,172.5C 433.52,170.568 433.687,168.568 433,166.5C 432.667,166.833 432.333,167.167 432,167.5C 431.5,166.5 431,165.5 430.5,164.5C 431.556,160.529 431.556,156.529 430.5,152.5C 432.233,153.008 432.566,153.841 431.5,155C 434.375,160.944 436.875,167.111 439,173.5C 439.556,171.405 440.056,171.238 440.5,173C 439.507,175.453 439.34,177.953 440,180.5C 443.802,191.162 446.468,202.162 448,213.5C 448.556,211.405 449.056,211.238 449.5,213C 449.319,228.131 449.153,243.297 449,258.5C 447.8,278.04 444.134,297.04 438,315.5C 431.073,332.84 422.906,349.007 413.5,364C 414.863,366.129 414.529,366.629 412.5,365.5C 409.063,368.604 406.396,372.271 404.5,376.5C 397.339,383.163 390.672,390.33 384.5,398C 379.645,399.52 375.978,402.52 373.5,407C 359.559,416.772 344.893,425.439 329.5,433C 280.741,453.669 231.408,454.835 181.5,436.5C 181.649,435.448 181.483,434.448 181,433.5C 180.667,433.833 180.333,434.167 180,434.5C 164.921,428.762 150.755,421.262 137.5,412C 94.8814,379.044 68.0481,335.877 57,282.5C 55.9914,284.025 55.4914,285.692 55.5,287.5C 54.5386,285.735 54.2053,283.735 54.5,281.5C 55.7773,280.306 56.4439,278.64 56.5,276.5C 54.5848,258.363 54.2514,240.363 55.5,222.5C 55.1253,225.397 55.6253,228.063 57,230.5C 57.3076,229.692 57.8076,229.025 58.5,228.5C 59.4841,231.428 59.8174,234.428 59.5,237.5C 60.8221,237.67 61.9887,237.337 63,236.5C 63.4186,237.672 64.0853,238.672 65,239.5C 65.323,234.044 65.4897,228.711 65.5,223.5C 66.3214,226.447 66.8214,229.447 67,232.5C 69.8665,238.93 71.1998,238.597 71,231.5C 71.9025,232.701 73.0692,233.535 74.5,234C 71.8696,236.355 72.203,236.855 75.5,235.5C 73.5801,263.876 78.4134,290.876 90,316.5C 91.3827,319.688 91.5494,322.854 90.5,326C 92.5165,326.674 94.1832,327.841 95.5,329.5C 97.631,334.764 100.964,339.097 105.5,342.5C 105.109,341.282 105.776,340.448 107.5,340C 106.707,336.589 106.207,333.089 106,329.5C 105.333,312.833 105.333,296.167 106,279.5C 114.222,244.414 136.222,227.414 172,228.5C 198.735,232.651 215.735,246.985 223,271.5C 223.333,274.167 223.667,276.833 224,279.5C 224.333,327.5 224.667,375.5 225,423.5C 229.769,426.265 234.936,427.098 240.5,426C 241.381,425.292 242.047,424.458 242.5,423.5C 242.5,422.167 242.5,420.833 242.5,419.5C 243.482,416.038 243.815,412.371 243.5,408.5C 244.083,411.241 245.083,413.908 246.5,416.5C 247.287,415.758 247.953,414.925 248.5,414C 247.209,410.545 247.209,407.045 248.5,403.5C 249.333,404.5 250.167,405.5 251,406.5C 251.333,405.833 251.667,405.167 252,404.5C 253.603,408.752 255.103,413.085 256.5,417.5C 258.744,413.379 259.077,409.046 257.5,404.5C 259.437,396.21 259.437,388.043 257.5,380C 258.035,370.195 258.368,359.861 258.5,349C 257.77,345.206 257.27,341.373 257,337.5C 255.467,337.056 253.967,336.723 252.5,336.5C 254.148,330.668 255.148,324.668 255.5,318.5C 255.023,317.522 254.357,316.689 253.5,316C 254.833,314.667 254.833,313.333 253.5,312C 254.428,311.612 255.095,310.945 255.5,310C 255.056,308.238 254.556,308.405 254,310.5C 253.169,306.655 253.669,302.988 255.5,299.5C 255.148,298.214 254.482,297.381 253.5,297C 254.01,295.174 254.844,295.007 256,296.5C 256.311,298.556 256.811,300.556 257.5,302.5C 256.76,310.791 256.76,319.125 257.5,327.5C 256.215,330.021 255.548,332.687 255.5,335.5C 257.201,335.034 258.701,335.034 260,335.5C 260.667,319.167 260.667,302.833 260,286.5C 259.667,287.167 259.333,287.833 259,288.5C 258.333,282.833 258.333,277.167 259,271.5C 259.333,271.833 259.667,272.167 260,272.5C 261.055,253.336 260.555,234.336 258.5,215.5C 258.386,212.636 258.886,209.97 260,207.5C 260.667,159.5 260.667,111.5 260,63.5C 259.667,74.1667 259.333,84.8333 259,95.5C 258.368,86.4053 257.868,77.4053 257.5,68.5C 258.769,61.7381 259.603,55.0715 260,48.5C 261.303,49.1122 262.47,49.4455 263.5,49.5C 261.97,52.5325 261.637,55.5325 262.5,58.5C 264.613,57.7437 266.613,57.5771 268.5,58C 268.167,57.6667 267.833,57.3333 267.5,57C 268.967,55.9025 269.801,54.4025 270,52.5C 270.494,54.1341 270.66,55.8008 270.5,57.5C 274.182,57.3347 277.848,57.5014 281.5,58C 284.667,59.6341 287.834,59.4674 291,57.5C 292.059,57.6301 292.892,58.1301 293.5,59C 292.663,60.0113 292.33,61.1779 292.5,62.5 Z"/></g>
<g><path style="opacity:0.965" fill="#0d358a" d="M 341.5,164.5 C 372.554,163.309 385.554,177.976 380.5,208.5C 373.216,224.147 360.883,230.981 343.5,229C 324.165,223.52 315.331,210.687 317,190.5C 320.59,177.413 328.757,168.746 341.5,164.5 Z"/></g>
<g><path style="opacity:1" fill="#0a52a6" d="M 343.5,167.5 C 347.182,167.335 350.848,167.501 354.5,168C 359.293,169.154 363.793,170.988 368,173.5C 368.772,173.355 369.439,173.022 370,172.5C 372.327,177.825 375.16,182.825 378.5,187.5C 380.725,200.998 376.725,212.165 366.5,221C 345.425,230.755 330.258,225.255 321,204.5C 318.071,185.635 325.571,173.302 343.5,167.5 Z"/></g>
<g><path style="opacity:1" fill="#002687" d="M 275.5,59.5 C 273.369,60.3138 271.036,60.8138 268.5,61C 267.944,61.3826 267.611,61.8826 267.5,62.5C 266.5,62.5 265.5,62.5 264.5,62.5C 263.883,62.6107 263.383,62.944 263,63.5C 262.333,143.5 262.333,223.5 263,303.5C 263.173,309.348 263.673,315.015 264.5,320.5C 264.5,320.833 264.5,321.167 264.5,321.5C 263.674,325.982 263.174,330.649 263,335.5C 262.832,364.003 262.332,392.336 261.5,420.5C 261.167,300.498 261.5,180.498 262.5,60.5C 266.765,59.5614 271.098,59.2281 275.5,59.5 Z"/></g>
<g><path style="opacity:0.329" fill="#093189" d="M 275.5,426.5 C 272.833,425.5 270.167,424.5 267.5,423.5C 273.44,422.604 279.44,421.771 285.5,421C 286.662,420.173 287.829,419.34 289,418.5C 292.057,418.684 295.057,418.684 298,418.5C 306.728,415.475 315.395,412.141 324,408.5C 328.635,406.026 333.135,403.359 337.5,400.5C 337.638,397.33 337.971,394.163 338.5,391C 327.888,387.314 321.888,379.814 320.5,368.5C 320.865,367.098 321.699,366.098 323,365.5C 327.07,365.618 331.236,365.785 335.5,366C 337.752,367.087 339.085,368.921 339.5,371.5C 343.895,375.443 348.062,375.11 352,370.5C 352.806,365.94 350.973,362.774 346.5,361C 338.412,359.356 331.246,355.856 325,350.5C 324,348.5 323,346.5 322,344.5C 321.667,340.167 321.333,335.833 321,331.5C 320.019,337.864 319.519,337.531 319.5,330.5C 320.675,330.719 321.675,330.386 322.5,329.5C 321.674,328.549 321.508,327.549 322,326.5C 322.333,326.833 322.667,327.167 323,327.5C 326.053,321.45 330.886,317.617 337.5,316C 336.833,315.667 336.167,315.333 335.5,315C 336.5,312.667 337.5,310.333 338.5,308C 342.706,307.739 346.873,307.239 351,306.5C 351.772,306.645 352.439,306.978 353,307.5C 353.769,310.099 353.602,312.599 352.5,315C 363.654,318.324 369.321,325.824 369.5,337.5C 363.833,337.5 358.167,337.5 352.5,337.5C 350.278,331.311 346.278,329.978 340.5,333.5C 339.585,334.328 338.919,335.328 338.5,336.5C 340.537,339.363 343.204,341.53 346.5,343C 364.617,346.411 372.617,357.245 370.5,375.5C 404.657,339.468 422.324,298.801 423.5,253.5C 415.337,265.824 407.17,278.157 399,290.5C 396.053,294.57 392.553,298.07 388.5,301C 385.57,301.606 382.737,302.44 380,303.5C 379.147,301.875 378.147,301.542 377,302.5C 375.184,301.671 373.351,300.837 371.5,300C 362.716,293.552 354.216,286.719 346,279.5C 329.189,297.646 312.356,315.812 295.5,334C 288.079,339.261 281.579,338.427 276,331.5C 275.176,328.118 275.343,324.784 276.5,321.5C 279.29,317.54 282.29,313.873 285.5,310.5C 286.873,310.343 288.207,310.51 289.5,311C 285.986,314.517 282.819,318.351 280,322.5C 279.333,325.5 279.333,328.5 280,331.5C 281.648,333.028 283.648,333.695 286,333.5C 288.688,333.182 291.188,332.349 293.5,331C 309.961,313.368 326.294,295.535 342.5,277.5C 343.607,276.978 344.774,276.645 346,276.5C 349.655,279.45 353.822,281.617 358.5,283C 358.167,283.333 357.833,283.667 357.5,284C 364.067,290.958 371.734,296.458 380.5,300.5C 384.637,298.458 388.637,296.124 392.5,293.5C 402.425,278.884 412.258,264.217 422,249.5C 423.749,248.701 425.082,249.368 426,251.5C 426.667,250.167 427.333,250.167 428,251.5C 427.291,269.143 424.291,286.476 419,303.5C 418.667,302.5 418.333,301.5 418,300.5C 417.584,304.914 416.75,309.248 415.5,313.5C 402.854,344.37 383.854,369.704 358.5,389.5C 355.948,391.87 352.948,393.203 349.5,393.5C 350.191,387.639 353.524,384.139 359.5,383C 369.549,372.839 369.882,362.506 360.5,352C 353.3,349.491 346.3,346.491 339.5,343C 338.167,342.333 338.167,341.667 339.5,341C 334.914,338.637 334.247,335.304 337.5,331C 345.04,325.646 351.373,326.646 356.5,334C 359.817,334.498 363.15,334.665 366.5,334.5C 366.425,331.794 366.092,329.127 365.5,326.5C 364.448,326.649 363.448,326.483 362.5,326C 359.025,322.429 355.025,319.595 350.5,317.5C 349.526,315.257 349.192,312.924 349.5,310.5C 346.794,310.425 344.127,310.092 341.5,309.5C 341.74,312.579 341.407,315.579 340.5,318.5C 330.612,321.83 324.612,327.997 322.5,337C 324.666,342.298 327.666,347.132 331.5,351.5C 337.736,354.3 344.069,356.8 350.5,359C 356.422,362.85 357.922,368.017 355,374.5C 346.676,379.125 339.51,377.792 333.5,370.5C 330.914,369.52 328.247,369.187 325.5,369.5C 325.478,380.488 330.478,385.822 340.5,385.5C 341.663,391.137 341.83,396.804 341,402.5C 320.696,414.767 298.863,422.767 275.5,426.5 Z"/></g>
<g><path style="opacity:0.531" fill="#082a79" d="M 240.5,74.5 C 241.167,92.5 241.833,110.5 242.5,128.5C 242.332,168.839 242.665,209.173 243.5,249.5C 242.501,305.998 242.168,362.664 242.5,419.5C 242.5,420.833 242.5,422.167 242.5,423.5C 241.209,423.737 240.209,423.404 239.5,422.5C 239.639,307.363 239.972,191.363 240.5,74.5 Z"/></g>
<g><path style="opacity:0.925" fill="#0d378d" d="M 95.5,163.5 C 82.2465,195.613 76.9132,228.947 79.5,263.5C 80.0253,264.192 80.6919,264.692 81.5,265C 80.572,265.388 79.9054,266.055 79.5,267C 80.1117,269.058 81.1117,270.891 82.5,272.5C 82.2907,273.086 81.9574,273.586 81.5,274C 83.2888,277.249 83.6221,280.582 82.5,284C 84.3986,289.702 85.8986,295.535 87,301.5C 90.8419,309.684 94.3419,318.351 97.5,327.5C 99.9424,327.354 100.609,328.187 99.5,330C 100.542,331.918 101.708,333.751 103,335.5C 103.546,332.101 103.213,328.768 102,325.5C 101.333,310.5 101.333,295.5 102,280.5C 109.337,245.832 130.671,227.166 166,224.5C 190.538,226.253 209.371,237.42 222.5,258C 221.823,260.537 222.823,262.537 225.5,264C 225.167,264.333 224.833,264.667 224.5,265C 225.932,270.455 227.265,275.955 228.5,281.5C 227.691,283.292 227.191,285.292 227,287.5C 226.333,330.167 226.333,372.833 227,415.5C 227.191,417.708 227.691,419.708 228.5,421.5C 231.584,422.993 234.584,422.66 237.5,420.5C 238.696,420.846 238.696,421.346 237.5,422C 238.094,422.464 238.761,422.631 239.5,422.5C 240.209,423.404 241.209,423.737 242.5,423.5C 242.047,424.458 241.381,425.292 240.5,426C 234.936,427.098 229.769,426.265 225,423.5C 224.667,375.5 224.333,327.5 224,279.5C 223.667,276.833 223.333,274.167 223,271.5C 215.735,246.985 198.735,232.651 172,228.5C 136.222,227.414 114.222,244.414 106,279.5C 105.333,296.167 105.333,312.833 106,329.5C 106.207,333.089 106.707,336.589 107.5,340C 105.776,340.448 105.109,341.282 105.5,342.5C 100.964,339.097 97.631,334.764 95.5,329.5C 94.1832,327.841 92.5165,326.674 90.5,326C 91.5494,322.854 91.3827,319.688 90,316.5C 78.4134,290.876 73.5801,263.876 75.5,235.5C 76.3421,222.763 77.8421,210.096 80,197.5C 81,195.833 82,194.167 83,192.5C 84.8525,182.796 87.8525,173.462 92,164.5C 93.0113,163.663 94.1779,163.33 95.5,163.5 Z"/></g>
<g><path style="opacity:1" fill="#0b47a2" d="M 243.5,249.5 C 243.334,256.175 243.5,262.842 244,269.5C 244.063,273.425 245.229,276.925 247.5,280C 247,280.5 246.5,281 246,281.5C 245.083,287.369 244.25,293.202 243.5,299C 243.518,335.352 243.518,371.852 243.5,408.5C 243.815,412.371 243.482,416.038 242.5,419.5C 242.168,362.664 242.501,305.998 243.5,249.5 Z"/></g>
<g><path style="opacity:0.189" fill="#234d88" d="M 228.5,281.5 C 228.5,328.167 228.5,374.833 228.5,421.5C 227.691,419.708 227.191,417.708 227,415.5C 226.333,372.833 226.333,330.167 227,287.5C 227.191,285.292 227.691,283.292 228.5,281.5 Z"/></g>
<g><path style="opacity:0.6" fill="#092573" d="M 264.5,321.5 C 264.5,355.5 264.5,389.5 264.5,423.5C 265.5,423.5 266.5,423.5 267.5,423.5C 270.167,424.5 272.833,425.5 275.5,426.5C 271.486,426.666 267.486,426.499 263.5,426C 261.808,424.599 261.141,422.766 261.5,420.5C 262.332,392.336 262.832,364.003 263,335.5C 263.174,330.649 263.674,325.982 264.5,321.5 Z"/></g>
</svg>
